<svg xmlns="http://www.w3.org/2000/svg" xmlns:xlink="http://www.w3.org/1999/xlink" width="500" zoomAndPan="magnify" viewBox="0 0 375 374.999991" height="500" preserveAspectRatio="xMidYMid meet" version="1.0"><defs><g/><clipPath id="c25f87aab7"><path d="M 38.71875 80 L 337.96875 80 L 337.96875 188 L 38.71875 188 Z M 38.71875 80 " clip-rule="nonzero"/></clipPath></defs><g fill="#ffffff" fill-opacity="1"><g transform="translate(36.647413, 243.888395)"><g><path d="M 39.234375 -41 L 39.234375 0 L 31.28125 0 L 31.28125 -19.984375 L 13.140625 -19.984375 L 13.140625 0 L 5.1875 0 L 5.1875 -41 L 13.140625 -41 L 13.140625 -25.828125 L 31.28125 -25.828125 L 31.28125 -41 Z M 39.234375 -41 "/></g></g></g><g fill="#000000" fill-opacity="1"><g transform="translate(81.063768, 243.888395)"><g/></g></g><g fill="#000000" fill-opacity="1"><g transform="translate(97.313309, 243.888395)"><g/></g></g><g fill="#000000" fill-opacity="1"><g transform="translate(113.562849, 243.888395)"><g/></g></g><g fill="#000000" fill-opacity="1"><g transform="translate(129.81239, 243.888395)"><g/></g></g><g fill="#ffffff" fill-opacity="1"><g transform="translate(146.071882, 243.888395)"><g><path d="M 38.953125 -41 L 38.953125 -18.015625 C 38.953125 -15.054688 38.644531 -12.414062 38.03125 -10.09375 C 37.425781 -7.769531 36.441406 -5.8125 35.078125 -4.21875 C 33.722656 -2.625 31.957031 -1.410156 29.78125 -0.578125 C 27.601562 0.242188 24.945312 0.65625 21.8125 0.65625 C 18.613281 0.65625 15.925781 0.226562 13.75 -0.625 C 11.570312 -1.476562 9.8125 -2.710938 8.46875 -4.328125 C 7.132812 -5.941406 6.175781 -7.90625 5.59375 -10.21875 C 5.019531 -12.53125 4.734375 -15.128906 4.734375 -18.015625 L 4.734375 -41 L 12.828125 -41 L 12.828125 -17.046875 C 12.828125 -15.242188 12.984375 -13.613281 13.296875 -12.15625 C 13.609375 -10.707031 14.117188 -9.472656 14.828125 -8.453125 C 15.546875 -7.429688 16.472656 -6.644531 17.609375 -6.09375 C 18.753906 -5.550781 20.15625 -5.28125 21.8125 -5.28125 C 23.5 -5.28125 24.921875 -5.550781 26.078125 -6.09375 C 27.242188 -6.644531 28.175781 -7.429688 28.875 -8.453125 C 29.582031 -9.484375 30.085938 -10.726562 30.390625 -12.1875 C 30.691406 -13.644531 30.84375 -15.265625 30.84375 -17.046875 L 30.84375 -41 Z M 38.953125 -41 "/></g></g></g><g fill="#ffffff" fill-opacity="1"><g transform="translate(189.746086, 243.888395)"><g><path d="M 5.015625 -7.09375 C 6.597656 -6.488281 8.285156 -5.976562 10.078125 -5.5625 C 11.867188 -5.15625 13.820312 -4.953125 15.9375 -4.953125 C 17.300781 -4.953125 18.550781 -5.078125 19.6875 -5.328125 C 20.832031 -5.578125 21.816406 -5.96875 22.640625 -6.5 C 23.472656 -7.03125 24.125 -7.707031 24.59375 -8.53125 C 25.0625 -9.363281 25.296875 -10.359375 25.296875 -11.515625 C 25.296875 -12.773438 25.039062 -13.773438 24.53125 -14.515625 C 24.03125 -15.253906 23.320312 -15.859375 22.40625 -16.328125 C 21.5 -16.804688 20.394531 -17.207031 19.09375 -17.53125 C 17.800781 -17.851562 16.367188 -18.21875 14.796875 -18.625 C 13.023438 -19.070312 11.410156 -19.585938 9.953125 -20.171875 C 8.503906 -20.765625 7.265625 -21.523438 6.234375 -22.453125 C 5.210938 -23.390625 4.414062 -24.539062 3.84375 -25.90625 C 3.28125 -27.28125 3 -28.972656 3 -30.984375 C 3 -32.335938 3.21875 -33.546875 3.65625 -34.609375 C 4.101562 -35.671875 4.707031 -36.597656 5.46875 -37.390625 C 6.226562 -38.179688 7.109375 -38.851562 8.109375 -39.40625 C 9.109375 -39.957031 10.15625 -40.398438 11.25 -40.734375 C 12.34375 -41.078125 13.457031 -41.328125 14.59375 -41.484375 C 15.738281 -41.640625 16.820312 -41.71875 17.84375 -41.71875 C 18.570312 -41.71875 19.441406 -41.675781 20.453125 -41.59375 C 21.472656 -41.519531 22.554688 -41.382812 23.703125 -41.1875 C 24.859375 -40.988281 26.046875 -40.726562 27.265625 -40.40625 C 28.492188 -40.082031 29.679688 -39.671875 30.828125 -39.171875 L 28.796875 -34.21875 C 27.273438 -34.769531 25.691406 -35.210938 24.046875 -35.546875 C 22.398438 -35.890625 20.675781 -36.0625 18.875 -36.0625 C 17.726562 -36.0625 16.679688 -35.972656 15.734375 -35.796875 C 14.785156 -35.617188 13.960938 -35.328125 13.265625 -34.921875 C 12.578125 -34.523438 12.039062 -34.003906 11.65625 -33.359375 C 11.28125 -32.710938 11.09375 -31.929688 11.09375 -31.015625 C 11.09375 -29.835938 11.320312 -28.914062 11.78125 -28.25 C 12.25 -27.582031 12.921875 -27.039062 13.796875 -26.625 C 14.671875 -26.207031 15.738281 -25.851562 17 -25.5625 C 18.269531 -25.269531 19.703125 -24.910156 21.296875 -24.484375 C 23.046875 -24.035156 24.65625 -23.5 26.125 -22.875 C 27.601562 -22.257812 28.878906 -21.460938 29.953125 -20.484375 C 31.023438 -19.503906 31.863281 -18.289062 32.46875 -16.84375 C 33.082031 -15.40625 33.390625 -13.628906 33.390625 -11.515625 C 33.390625 -9.648438 33.09375 -8.050781 32.5 -6.71875 C 31.914062 -5.394531 31.144531 -4.28125 30.1875 -3.375 C 29.238281 -2.476562 28.15625 -1.757812 26.9375 -1.21875 C 25.726562 -0.6875 24.492188 -0.28125 23.234375 0 C 21.984375 0.28125 20.765625 0.460938 19.578125 0.546875 C 18.398438 0.640625 17.367188 0.6875 16.484375 0.6875 C 15.609375 0.664062 14.625 0.609375 13.53125 0.515625 C 12.4375 0.421875 11.289062 0.269531 10.09375 0.0625 C 8.894531 -0.144531 7.679688 -0.425781 6.453125 -0.78125 C 5.234375 -1.132812 4.050781 -1.566406 2.90625 -2.078125 Z M 5.015625 -7.09375 "/></g></g></g><g fill="#ffffff" fill-opacity="1"><g transform="translate(225.979719, 243.888395)"><g><path d="M 29.703125 -41 L 29.703125 -35.15625 L 13.140625 -35.15625 L 13.140625 -25.859375 L 24.859375 -25.859375 L 24.859375 -20.015625 L 13.140625 -20.015625 L 13.140625 -5.84375 L 30.3125 -5.84375 L 30.3125 0 L 5.1875 0 L 5.1875 -41 Z M 29.703125 -41 "/></g></g></g><g fill="#ffffff" fill-opacity="1"><g transform="translate(259.932715, 243.888395)"><g><path d="M 9.71875 -7.46875 C 10.332031 -7.46875 10.882812 -7.363281 11.375 -7.15625 C 11.875 -6.945312 12.296875 -6.65625 12.640625 -6.28125 C 12.992188 -5.914062 13.265625 -5.488281 13.453125 -5 C 13.648438 -4.519531 13.75 -4.003906 13.75 -3.453125 C 13.75 -2.898438 13.640625 -2.378906 13.421875 -1.890625 C 13.210938 -1.410156 12.921875 -0.984375 12.546875 -0.609375 C 12.179688 -0.242188 11.753906 0.0390625 11.265625 0.25 C 10.785156 0.457031 10.269531 0.5625 9.71875 0.5625 C 9.164062 0.5625 8.644531 0.457031 8.15625 0.25 C 7.675781 0.0390625 7.25 -0.242188 6.875 -0.609375 C 6.507812 -0.984375 6.222656 -1.410156 6.015625 -1.890625 C 5.804688 -2.378906 5.703125 -2.898438 5.703125 -3.453125 C 5.703125 -4.035156 5.8125 -4.570312 6.03125 -5.0625 C 6.25 -5.5625 6.539062 -5.988281 6.90625 -6.34375 C 7.28125 -6.695312 7.707031 -6.972656 8.1875 -7.171875 C 8.675781 -7.367188 9.1875 -7.46875 9.71875 -7.46875 Z M 9.71875 -7.46875 "/></g></g></g><g fill="#fb9203" fill-opacity="1"><g transform="translate(279.391226, 243.888395)"><g><path d="M 17.8125 -41 L 17.8125 -12.234375 C 17.8125 -9.773438 17.710938 -7.613281 17.515625 -5.75 C 17.316406 -3.894531 16.90625 -2.242188 16.28125 -0.796875 C 15.9375 -0.0351562 15.507812 0.710938 15 1.453125 C 14.488281 2.191406 13.847656 2.914062 13.078125 3.625 C 12.304688 4.34375 11.398438 5.039062 10.359375 5.71875 C 9.328125 6.40625 8.117188 7.09375 6.734375 7.78125 L 3.53125 3.390625 C 4.539062 2.492188 5.4375 1.671875 6.21875 0.921875 C 7.007812 0.171875 7.679688 -0.675781 8.234375 -1.625 C 8.765625 -2.570312 9.164062 -3.703125 9.4375 -5.015625 C 9.71875 -6.328125 9.859375 -7.984375 9.859375 -9.984375 L 9.859375 -41 Z M 17.8125 -41 "/></g></g></g><g fill="#fb9203" fill-opacity="1"><g transform="translate(302.083567, 243.888395)"><g><path d="M 5.015625 -7.09375 C 6.597656 -6.488281 8.285156 -5.976562 10.078125 -5.5625 C 11.867188 -5.15625 13.820312 -4.953125 15.9375 -4.953125 C 17.300781 -4.953125 18.550781 -5.078125 19.6875 -5.328125 C 20.832031 -5.578125 21.816406 -5.96875 22.640625 -6.5 C 23.472656 -7.03125 24.125 -7.707031 24.59375 -8.53125 C 25.0625 -9.363281 25.296875 -10.359375 25.296875 -11.515625 C 25.296875 -12.773438 25.039062 -13.773438 24.53125 -14.515625 C 24.03125 -15.253906 23.320312 -15.859375 22.40625 -16.328125 C 21.5 -16.804688 20.394531 -17.207031 19.09375 -17.53125 C 17.800781 -17.851562 16.367188 -18.21875 14.796875 -18.625 C 13.023438 -19.070312 11.410156 -19.585938 9.953125 -20.171875 C 8.503906 -20.765625 7.265625 -21.523438 6.234375 -22.453125 C 5.210938 -23.390625 4.414062 -24.539062 3.84375 -25.90625 C 3.28125 -27.28125 3 -28.972656 3 -30.984375 C 3 -32.335938 3.21875 -33.546875 3.65625 -34.609375 C 4.101562 -35.671875 4.707031 -36.597656 5.46875 -37.390625 C 6.226562 -38.179688 7.109375 -38.851562 8.109375 -39.40625 C 9.109375 -39.957031 10.15625 -40.398438 11.25 -40.734375 C 12.34375 -41.078125 13.457031 -41.328125 14.59375 -41.484375 C 15.738281 -41.640625 16.820312 -41.71875 17.84375 -41.71875 C 18.570312 -41.71875 19.441406 -41.675781 20.453125 -41.59375 C 21.472656 -41.519531 22.554688 -41.382812 23.703125 -41.1875 C 24.859375 -40.988281 26.046875 -40.726562 27.265625 -40.40625 C 28.492188 -40.082031 29.679688 -39.671875 30.828125 -39.171875 L 28.796875 -34.21875 C 27.273438 -34.769531 25.691406 -35.210938 24.046875 -35.546875 C 22.398438 -35.890625 20.675781 -36.0625 18.875 -36.0625 C 17.726562 -36.0625 16.679688 -35.972656 15.734375 -35.796875 C 14.785156 -35.617188 13.960938 -35.328125 13.265625 -34.921875 C 12.578125 -34.523438 12.039062 -34.003906 11.65625 -33.359375 C 11.28125 -32.710938 11.09375 -31.929688 11.09375 -31.015625 C 11.09375 -29.835938 11.320312 -28.914062 11.78125 -28.25 C 12.25 -27.582031 12.921875 -27.039062 13.796875 -26.625 C 14.671875 -26.207031 15.738281 -25.851562 17 -25.5625 C 18.269531 -25.269531 19.703125 -24.910156 21.296875 -24.484375 C 23.046875 -24.035156 24.65625 -23.5 26.125 -22.875 C 27.601562 -22.257812 28.878906 -21.460938 29.953125 -20.484375 C 31.023438 -19.503906 31.863281 -18.289062 32.46875 -16.84375 C 33.082031 -15.40625 33.390625 -13.628906 33.390625 -11.515625 C 33.390625 -9.648438 33.09375 -8.050781 32.5 -6.71875 C 31.914062 -5.394531 31.144531 -4.28125 30.1875 -3.375 C 29.238281 -2.476562 28.15625 -1.757812 26.9375 -1.21875 C 25.726562 -0.6875 24.492188 -0.28125 23.234375 0 C 21.984375 0.28125 20.765625 0.460938 19.578125 0.546875 C 18.398438 0.640625 17.367188 0.6875 16.484375 0.6875 C 15.609375 0.664062 14.625 0.609375 13.53125 0.515625 C 12.4375 0.421875 11.289062 0.269531 10.09375 0.0625 C 8.894531 -0.144531 7.679688 -0.425781 6.453125 -0.78125 C 5.234375 -1.132812 4.050781 -1.566406 2.90625 -2.078125 Z M 5.015625 -7.09375 "/></g></g></g><g fill="#ffffff" fill-opacity="1"><g transform="translate(69.722284, 277.218838)"><g><path d="M 6.984375 0.109375 C 5.210938 0.109375 3.71875 -0.484375 2.5 -1.671875 C 1.289062 -2.859375 0.6875 -4.363281 0.6875 -6.1875 C 0.6875 -8.019531 1.289062 -9.523438 2.5 -10.703125 C 3.71875 -11.890625 5.210938 -12.484375 6.984375 -12.484375 C 8.273438 -12.484375 9.421875 -12.175781 10.421875 -11.5625 C 11.421875 -10.957031 12.160156 -10.085938 12.640625 -8.953125 L 10.671875 -8.953125 C 9.941406 -10.335938 8.710938 -11.03125 6.984375 -11.03125 C 5.640625 -11.03125 4.53125 -10.585938 3.65625 -9.703125 C 2.789062 -8.816406 2.359375 -7.644531 2.359375 -6.1875 C 2.359375 -4.726562 2.789062 -3.550781 3.65625 -2.65625 C 4.53125 -1.757812 5.640625 -1.3125 6.984375 -1.3125 C 7.804688 -1.3125 8.535156 -1.492188 9.171875 -1.859375 C 9.816406 -2.222656 10.316406 -2.742188 10.671875 -3.421875 L 12.640625 -3.421875 C 12.160156 -2.285156 11.421875 -1.410156 10.421875 -0.796875 C 9.421875 -0.191406 8.273438 0.109375 6.984375 0.109375 Z M 6.984375 0.109375 "/></g></g></g><g fill="#ffffff" fill-opacity="1"><g transform="translate(96.639673, 277.218838)"><g><path d="M 10.296875 -2.65625 C 11.171875 -3.550781 11.609375 -4.726562 11.609375 -6.1875 C 11.609375 -7.644531 11.171875 -8.816406 10.296875 -9.703125 C 9.429688 -10.585938 8.320312 -11.03125 6.96875 -11.03125 C 5.625 -11.03125 4.515625 -10.585938 3.640625 -9.703125 C 2.765625 -8.816406 2.328125 -7.644531 2.328125 -6.1875 C 2.328125 -4.726562 2.765625 -3.550781 3.640625 -2.65625 C 4.523438 -1.757812 5.640625 -1.3125 6.984375 -1.3125 C 8.328125 -1.3125 9.429688 -1.757812 10.296875 -2.65625 Z M 6.984375 0.125 C 5.210938 0.125 3.71875 -0.46875 2.5 -1.65625 C 1.289062 -2.851562 0.6875 -4.363281 0.6875 -6.1875 C 0.6875 -8.019531 1.289062 -9.523438 2.5 -10.703125 C 3.71875 -11.890625 5.210938 -12.484375 6.984375 -12.484375 C 8.753906 -12.484375 10.242188 -11.890625 11.453125 -10.703125 C 12.660156 -9.523438 13.265625 -8.019531 13.265625 -6.1875 C 13.265625 -4.351562 12.660156 -2.84375 11.453125 -1.65625 C 10.242188 -0.46875 8.753906 0.125 6.984375 0.125 Z M 6.984375 0.125 "/></g></g></g><g fill="#ffffff" fill-opacity="1"><g transform="translate(123.646162, 277.218838)"><g><path d="M 13.9375 -12.359375 L 13.9375 0 L 12.296875 0 L 12.296875 -9 L 8.171875 0 L 7.109375 0 L 2.953125 -9 L 2.953125 0 L 1.34375 0 L 1.34375 -12.359375 L 3 -12.359375 L 7.640625 -2.234375 L 12.28125 -12.359375 Z M 13.9375 -12.359375 "/></g></g></g><g fill="#ffffff" fill-opacity="1"><g transform="translate(151.989204, 277.218838)"><g><path d="M 1.3125 -4.328125 L 1.3125 -12.359375 L 2.953125 -12.359375 L 2.953125 -4.328125 C 2.953125 -3.304688 3.222656 -2.539062 3.765625 -2.03125 C 4.304688 -1.53125 5.050781 -1.28125 6 -1.28125 C 6.957031 -1.28125 7.707031 -1.53125 8.25 -2.03125 C 8.800781 -2.539062 9.078125 -3.304688 9.078125 -4.328125 L 9.078125 -12.359375 L 10.703125 -12.359375 L 10.703125 -4.328125 C 10.703125 -2.878906 10.257812 -1.773438 9.375 -1.015625 C 8.488281 -0.253906 7.363281 0.125 6 0.125 C 4.632812 0.125 3.507812 -0.253906 2.625 -1.015625 C 1.75 -1.773438 1.3125 -2.878906 1.3125 -4.328125 Z M 1.3125 -4.328125 "/></g></g></g><g fill="#ffffff" fill-opacity="1"><g transform="translate(177.053236, 277.218838)"><g><path d="M 9.484375 -12.359375 L 11.109375 -12.359375 L 11.109375 0 L 9.484375 0 L 2.953125 -9.8125 L 2.953125 0 L 1.34375 0 L 1.34375 -12.359375 L 2.953125 -12.359375 L 9.484375 -2.546875 Z M 9.484375 -12.359375 "/></g></g></g><g fill="#ffffff" fill-opacity="1"><g transform="translate(202.562792, 277.218838)"><g><path d="M 1.34375 0 L 1.34375 -12.359375 L 2.953125 -12.359375 L 2.953125 0 Z M 1.34375 0 "/></g></g></g><g fill="#ffffff" fill-opacity="1"><g transform="translate(219.928276, 277.218838)"><g><path d="M 2.953125 -1.25 L 5.234375 -1.25 C 6.796875 -1.25 7.984375 -1.675781 8.796875 -2.53125 C 9.617188 -3.382812 10.03125 -4.578125 10.03125 -6.109375 C 10.03125 -7.648438 9.617188 -8.847656 8.796875 -9.703125 C 7.984375 -10.554688 6.796875 -10.984375 5.234375 -10.984375 L 2.953125 -10.984375 Z M 5.234375 -12.359375 C 7.234375 -12.359375 8.8125 -11.796875 9.96875 -10.671875 C 11.125 -9.554688 11.703125 -8.035156 11.703125 -6.109375 C 11.703125 -4.191406 11.125 -2.691406 9.96875 -1.609375 C 8.8125 -0.535156 7.234375 0 5.234375 0 L 1.34375 0 L 1.34375 -12.359375 Z M 5.234375 -12.359375 "/></g></g></g><g fill="#ffffff" fill-opacity="1"><g transform="translate(245.402192, 277.218838)"><g><path d="M 9.859375 0 L 8.890625 -2.703125 L 3.40625 -2.703125 L 2.4375 0 L 0.78125 0 L 5.28125 -12.359375 L 7.0625 -12.359375 L 11.53125 0 Z M 3.875 -4 L 8.4375 -4 L 6.15625 -10.375 Z M 3.875 -4 "/></g></g></g><g fill="#ffffff" fill-opacity="1"><g transform="translate(270.786995, 277.218838)"><g><path d="M 2.953125 -1.25 L 5.234375 -1.25 C 6.796875 -1.25 7.984375 -1.675781 8.796875 -2.53125 C 9.617188 -3.382812 10.03125 -4.578125 10.03125 -6.109375 C 10.03125 -7.648438 9.617188 -8.847656 8.796875 -9.703125 C 7.984375 -10.554688 6.796875 -10.984375 5.234375 -10.984375 L 2.953125 -10.984375 Z M 5.234375 -12.359375 C 7.234375 -12.359375 8.8125 -11.796875 9.96875 -10.671875 C 11.125 -9.554688 11.703125 -8.035156 11.703125 -6.109375 C 11.703125 -4.191406 11.125 -2.691406 9.96875 -1.609375 C 8.8125 -0.535156 7.234375 0 5.234375 0 L 1.34375 0 L 1.34375 -12.359375 Z M 5.234375 -12.359375 "/></g></g></g><g fill="#ffffff" fill-opacity="1"><g transform="translate(296.26091, 277.218838)"><g><path d="M 7.875 -12.359375 L 7.875 -11.078125 L 2.953125 -11.078125 L 2.953125 -6.859375 L 7.34375 -6.859375 L 7.34375 -5.59375 L 2.953125 -5.59375 L 2.953125 -1.28125 L 7.875 -1.28125 L 7.875 0 L 1.34375 0 L 1.34375 -12.359375 Z M 7.875 -12.359375 "/></g></g></g><g clip-path="url(#c25f87aab7)"><path fill="#0097b2" d="M 38.675781 175.214844 C 46.820312 187.808594 63.636719 191.410156 76.230469 183.265625 C 114.730469 158.355469 188.46875 110.652344 188.46875 110.652344 C 188.46875 110.652344 262.210938 158.355469 300.710938 183.265625 C 313.304688 191.410156 330.121094 187.808594 338.269531 175.214844 C 338.269531 175.210938 338.269531 175.210938 338.269531 175.210938 C 338.269531 175.210938 195.847656 83.074219 195.847656 83.074219 C 191.359375 80.171875 185.582031 80.171875 181.09375 83.074219 C 181.09375 83.074219 38.671875 175.210938 38.671875 175.210938 C 38.671875 175.210938 38.671875 175.210938 38.675781 175.214844 Z M 38.675781 175.214844 " fill-opacity="1" fill-rule="evenodd"/></g><g fill="#fb9203" fill-opacity="1"><g transform="translate(82.353776, 239.156198)"><g><path d="M 19.5 7.984375 C 17.695312 7.984375 16.035156 7.867188 14.515625 7.640625 C 12.992188 7.410156 11.675781 6.953125 10.5625 6.265625 C 9.445312 5.585938 8.582031 4.582031 7.96875 3.25 C 7.363281 1.914062 7.0625 0.144531 7.0625 -2.0625 L 7.0625 -6.046875 C 7.0625 -7.890625 6.660156 -9.222656 5.859375 -10.046875 C 5.066406 -10.867188 3.632812 -11.28125 1.5625 -11.28125 L 1.5625 -18.171875 C 3.632812 -18.171875 5.066406 -18.582031 5.859375 -19.40625 C 6.660156 -20.226562 7.0625 -21.5625 7.0625 -23.40625 L 7.0625 -27.375 C 7.0625 -29.582031 7.363281 -31.351562 7.96875 -32.6875 C 8.582031 -34.019531 9.445312 -35.023438 10.5625 -35.703125 C 11.675781 -36.390625 12.992188 -36.847656 14.515625 -37.078125 C 16.035156 -37.304688 17.695312 -37.421875 19.5 -37.421875 L 19.5 -31.71875 C 17.375 -31.71875 15.988281 -31.300781 15.34375 -30.46875 C 14.707031 -29.632812 14.390625 -28.347656 14.390625 -26.609375 L 14.390625 -21.359375 C 14.390625 -20.441406 14.21875 -19.570312 13.875 -18.75 C 13.53125 -17.9375 12.898438 -17.210938 11.984375 -16.578125 C 11.066406 -15.941406 9.738281 -15.445312 8 -15.09375 L 8 -14.375 C 9.738281 -14.007812 11.066406 -13.507812 11.984375 -12.875 C 12.898438 -12.238281 13.53125 -11.507812 13.875 -10.6875 C 14.21875 -9.863281 14.390625 -8.992188 14.390625 -8.078125 L 14.390625 -2.828125 C 14.390625 -1.097656 14.707031 0.179688 15.34375 1.015625 C 15.988281 1.847656 17.375 2.265625 19.5 2.265625 Z M 19.5 7.984375 "/></g></g></g><g fill="#ffffff" fill-opacity="1"><g transform="translate(103.033384, 239.156198)"><g><path d="M 9.453125 -36.734375 L 9.453125 -32.859375 C 9.453125 -31.773438 9.238281 -30.65625 8.8125 -29.5 C 8.394531 -28.351562 7.832031 -27.273438 7.125 -26.265625 C 6.425781 -25.253906 5.65625 -24.398438 4.8125 -23.703125 L 1.4375 -25.6875 C 2.03125 -26.644531 2.554688 -27.691406 3.015625 -28.828125 C 3.484375 -29.972656 3.71875 -31.304688 3.71875 -32.828125 L 3.71875 -36.734375 Z M 18.453125 -36.734375 L 18.453125 -32.859375 C 18.453125 -31.773438 18.238281 -30.65625 17.8125 -29.5 C 17.394531 -28.351562 16.832031 -27.273438 16.125 -26.265625 C 15.425781 -25.253906 14.65625 -24.398438 13.8125 -23.703125 L 10.4375 -25.6875 C 11.03125 -26.644531 11.554688 -27.691406 12.015625 -28.828125 C 12.484375 -29.972656 12.71875 -31.304688 12.71875 -32.828125 L 12.71875 -36.734375 Z M 18.453125 -36.734375 "/></g></g></g><g fill="#fb9203" fill-opacity="1"><g transform="translate(124.292794, 239.156198)"><g><path d="M 1.171875 -37.4375 C 2.972656 -37.4375 4.632812 -37.320312 6.15625 -37.09375 C 7.675781 -36.863281 8.992188 -36.40625 10.109375 -35.71875 C 11.222656 -35.039062 12.082031 -34.035156 12.6875 -32.703125 C 13.300781 -31.367188 13.609375 -29.597656 13.609375 -27.390625 L 13.609375 -23.40625 C 13.609375 -21.5625 14.003906 -20.226562 14.796875 -19.40625 C 15.597656 -18.582031 17.035156 -18.171875 19.109375 -18.171875 L 19.109375 -11.28125 C 17.035156 -11.28125 15.597656 -10.867188 14.796875 -10.046875 C 14.003906 -9.222656 13.609375 -7.890625 13.609375 -6.046875 L 13.609375 -2.078125 C 13.609375 0.128906 13.300781 1.898438 12.6875 3.234375 C 12.082031 4.566406 11.222656 5.570312 10.109375 6.25 C 8.992188 6.9375 7.675781 7.394531 6.15625 7.625 C 4.632812 7.851562 2.972656 7.96875 1.171875 7.96875 L 1.171875 2.265625 C 3.296875 2.265625 4.675781 1.847656 5.3125 1.015625 C 5.957031 0.179688 6.28125 -1.101562 6.28125 -2.84375 L 6.28125 -8.09375 C 6.28125 -9.007812 6.453125 -9.875 6.796875 -10.6875 C 7.140625 -11.507812 7.769531 -12.238281 8.6875 -12.875 C 9.601562 -13.507812 10.929688 -14.003906 12.671875 -14.359375 L 12.671875 -15.078125 C 10.929688 -15.441406 9.601562 -15.941406 8.6875 -16.578125 C 7.769531 -17.210938 7.140625 -17.941406 6.796875 -18.765625 C 6.453125 -19.585938 6.28125 -20.457031 6.28125 -21.375 L 6.28125 -26.625 C 6.28125 -28.351562 5.957031 -29.632812 5.3125 -30.46875 C 4.675781 -31.300781 3.296875 -31.71875 1.171875 -31.71875 Z M 1.171875 -37.4375 "/></g></g></g><g fill="#ffffff" fill-opacity="1"><g transform="translate(108.76537, 235.281426)"><g><path d="M 5.484375 5.9375 C 2.191406 5.9375 -0.625 5.035156 -2.96875 3.234375 L -2.96875 0.515625 C -2.382812 0.972656 -1.628906 1.390625 -0.703125 1.765625 C 0.210938 2.140625 1.207031 2.429688 2.28125 2.640625 C 3.363281 2.859375 4.429688 2.96875 5.484375 2.96875 C 6.546875 2.96875 7.613281 2.859375 8.6875 2.640625 C 9.769531 2.429688 10.769531 2.140625 11.6875 1.765625 C 12.613281 1.390625 13.375 0.972656 13.96875 0.515625 L 13.96875 3.234375 C 11.613281 5.035156 8.785156 5.9375 5.484375 5.9375 Z M 5.484375 5.9375 "/></g></g></g><g fill="#ffffff" fill-opacity="1"><g transform="translate(106.417575, 219.36248)"><g><path d="M -0.265625 4.21875 C -0.265625 3.550781 -0.03125 2.976562 0.4375 2.5 C 0.914062 2.03125 1.488281 1.796875 2.15625 1.796875 C 2.8125 1.796875 3.375 2.03125 3.84375 2.5 C 4.320312 2.976562 4.5625 3.550781 4.5625 4.21875 C 4.5625 4.863281 4.320312 5.425781 3.84375 5.90625 C 3.375 6.394531 2.8125 6.640625 2.15625 6.640625 C 1.488281 6.640625 0.914062 6.394531 0.4375 5.90625 C -0.03125 5.425781 -0.265625 4.863281 -0.265625 4.21875 Z M 10.578125 4.21875 C 10.578125 3.550781 10.8125 2.976562 11.28125 2.5 C 11.757812 2.03125 12.332031 1.796875 13 1.796875 C 13.65625 1.796875 14.21875 2.03125 14.6875 2.5 C 15.164062 2.976562 15.40625 3.550781 15.40625 4.21875 C 15.40625 4.863281 15.164062 5.425781 14.6875 5.90625 C 14.21875 6.394531 13.65625 6.640625 13 6.640625 C 12.332031 6.640625 11.757812 6.394531 11.28125 5.90625 C 10.8125 5.425781 10.578125 4.863281 10.578125 4.21875 Z M 10.578125 4.21875 "/></g></g></g></svg>